<?xml version="1.0" encoding="UTF-8"?>
<svg version="1.1" xmlns="http://www.w3.org/2000/svg" width="1254" height="1254">
<path d="M0 0 C413.82 0 827.64 0 1254 0 C1254 413.82 1254 827.64 1254 1254 C840.18 1254 426.36 1254 0 1254 C0 840.18 0 426.36 0 0 Z " fill="#FBFBFB" transform="translate(0,0)"/>
<path d="M0 0 C45.77622674 -0.04414228 91.5524333 -0.08105084 137.32867526 -0.10213066 C142.74060125 -0.10463189 148.1525272 -0.10722055 153.56445312 -0.10986328 C155.18048763 -0.11065021 155.18048763 -0.11065021 156.8291693 -0.11145304 C174.24295385 -0.12014093 191.6567251 -0.13590195 209.07050177 -0.15430559 C226.9564338 -0.17304971 244.84235889 -0.18412624 262.72830033 -0.18817699 C273.75295669 -0.19091271 284.77757547 -0.19953377 295.80222026 -0.21583293 C303.37596324 -0.22645558 310.94968699 -0.22958875 318.52343687 -0.22700275 C322.8843141 -0.22572963 327.24512595 -0.22759483 331.60599136 -0.23841095 C373.90657575 -0.33798635 373.90657575 -0.33798635 392.02392578 4.28808594 C395.03111677 5.00744352 397.99204479 5.47244062 401.0546875 5.890625 C407.89482479 6.91526292 414.50623144 8.47872762 421.1875 10.25 C422.94090698 10.71079956 422.94090698 10.71079956 424.72973633 11.1809082 C431.60463388 13.01601009 438.42967856 14.95790583 445.1875 17.1875 C445.87416748 17.41276367 446.56083496 17.63802734 447.26831055 17.87011719 C451.38626486 19.28222147 455.20409943 21.03739956 459.07250977 23.02929688 C461.34854232 24.17552936 463.68105433 25.16664364 466.02929688 26.15478516 C502.57912233 41.83063943 535.40690213 63.48538747 564.44140625 90.62890625 C566.58244938 92.61304851 568.76198429 94.50312183 571 96.375 C576.81223105 101.43068032 581.88326418 107.25724657 587 113 C587.50080078 113.56138672 588.00160156 114.12277344 588.51757812 114.70117188 C605.70111391 134.08025721 620.34553232 155.42085758 633 178 C633.40959961 178.72735352 633.81919922 179.45470703 634.24121094 180.20410156 C652.80267415 213.45824526 665.08632293 250.43349958 671 288 C671.14566406 288.91281738 671.29132812 289.82563477 671.44140625 290.76611328 C673.54000022 304.16828265 674.7193245 317.44054499 675 331 C675.02723145 332.14082031 675.05446289 333.28164063 675.08251953 334.45703125 C676.16500543 386.03510166 667.01007215 439.62803163 644.671875 486.4921875 C643.44299502 489.07053848 642.2491832 491.65353612 641.078125 494.2578125 C629.63156042 519.45416487 614.52179424 542.81388272 596.69580078 563.95556641 C595.48091941 565.42021032 594.28906497 566.90407391 593.11279297 568.39990234 C587.07204899 576.01844213 580.42701596 582.87971913 573.53515625 589.72558594 C571.62785668 591.62215939 569.73149941 593.52920305 567.8359375 595.4375 C560.86891013 602.4129715 553.80833373 608.96277489 546 615 C545.30406738 615.54462891 544.60813477 616.08925781 543.89111328 616.65039062 C542.02367067 618.09767041 540.14249073 619.5231698 538.25 620.9375 C537.57590088 621.44128174 536.90180176 621.94506348 536.20727539 622.46411133 C529.30955774 627.57487216 522.24000401 632.38849544 515 637 C514.42523926 637.36657715 513.85047852 637.7331543 513.25830078 638.11083984 C502.40841556 644.96388438 491.03108984 650.81856868 479.61279297 656.65771484 C477.38032683 657.80461251 475.15860366 658.96851199 472.94140625 660.14453125 C466.02427847 663.74834697 459.19608427 666.47093815 451.765625 668.76171875 C448.87339472 669.71279447 446.152669 670.75046728 443.3515625 671.921875 C437.41228508 674.33259573 431.32058083 675.95019973 425.125 677.5625 C424.03058594 677.85318359 422.93617188 678.14386719 421.80859375 678.44335938 C418.54202252 679.3073578 415.27132729 680.15421555 412 681 C411.00242676 681.26651367 410.00485352 681.53302734 408.97705078 681.80761719 C401.581532 683.7415484 394.18863267 685.04076367 386.625 686.125 C385.50867188 686.29386719 384.39234375 686.46273437 383.2421875 686.63671875 C368.91992494 688.73225717 354.79079148 689.1440648 340.3515625 689.09765625 C338.79711951 689.09618125 337.24267601 689.09516399 335.68823242 689.09460449 C330.00048058 689.08941622 324.31273945 689.07545534 318.625 689.0625 C299.505625 689.0315625 299.505625 689.0315625 280 689 C280 645.44 280 601.88 280 557 C312.3125 556.625 312.3125 556.625 322.38793945 556.52197266 C337.03036741 556.34320096 351.46847754 555.96515185 366 554 C368.31237519 553.74884823 370.62485432 553.49864876 372.9375 553.25 C393.51999299 550.17583535 413.74881182 541.75879858 432 532 C432.60585938 531.67773438 433.21171875 531.35546875 433.8359375 531.0234375 C459.43724128 517.27251887 481.87469575 497.44030232 499 474 C499.39525879 473.46020508 499.79051758 472.92041016 500.19775391 472.36425781 C535.12525221 424.22371763 547.72166757 364.21893672 538.62548828 305.5859375 C537.69145519 300.31459438 536.40975405 295.16201578 535 290 C534.65026123 288.68829834 534.65026123 288.68829834 534.29345703 287.35009766 C526.52756978 258.68182232 513.32490902 231.67643678 494 209 C492.96445566 207.76204328 491.92931137 206.52375184 490.89453125 205.28515625 C482.62669827 195.45365784 474.08091451 187.00931297 464 179 C462.58460938 177.84177734 462.58460938 177.84177734 461.140625 176.66015625 C431.1116702 152.66033098 396.85008072 139.50865311 359 134 C357.91525404 133.82899767 356.83050809 133.65799533 355.71289104 133.48181111 C352.30333073 133.03936235 349.0754852 132.86989263 345.64135075 132.8613348 C344.40125816 132.85586036 343.16116558 132.85038591 341.88349444 132.84474558 C340.52064207 132.84366959 339.15778963 132.84268485 337.79493713 132.84178162 C336.33696465 132.83721198 334.87899346 132.83221137 333.42102379 132.82681805 C329.42348809 132.81327324 325.42596087 132.80582921 321.42840827 132.79939139 C317.11423416 132.79137134 312.80007759 132.7776791 308.48591614 132.76467896 C301.01425795 132.74293896 293.54259796 132.72478543 286.07092476 132.70907402 C275.26816512 132.68635283 264.46542493 132.65821312 253.66268181 132.62875474 C236.13556274 132.58110641 218.60843572 132.53783475 201.08129883 132.49731445 C184.05622742 132.45794549 167.03116309 132.4165159 150.00610352 132.37231445 C148.95652014 132.36959018 147.90693676 132.36686591 146.82554782 132.36405908 C141.56004909 132.35037937 136.29455047 132.33665915 131.0290519 132.32291877 C87.35271514 132.20899733 43.67636419 132.10298452 0 132 C0 88.44 0 44.88 0 0 Z " fill="#020101" transform="translate(335,291)"/>
<path d="M0 0 C70.62 0 141.24 0 214 0 C214 73.59 214 147.18 214 223 C143.38 223 72.76 223 0 223 C0 149.41 0 75.82 0 0 Z " fill="#020202" transform="translate(275,757)"/>
<path d="M0 0 C0.99 0 1.98 0 3 0 C3.07402836 14.07052926 2.84627427 28.12156024 2.5 42.1875 C2.45161758 44.22069825 2.40343947 46.25390137 2.35546875 48.28710938 C2.23932349 53.19146536 2.12045194 58.09574798 2 63 C1.67 63 1.34 63 1 63 C1 43.86 1 24.72 1 5 C0.34 5 -0.32 5 -1 5 C-0.67 3.35 -0.34 1.7 0 0 Z " fill="#060609" transform="translate(485,759)"/>
<path d="M0 0 C0 0.99 0 1.98 0 3 C0.66 3.33 1.32 3.66 2 4 C-0.45620851 5.17133058 -2.91474917 6.33721722 -5.375 7.5 C-6.07367187 7.83386719 -6.77234375 8.16773438 -7.4921875 8.51171875 C-12.7734375 11 -12.7734375 11 -15 11 C-15 10.34 -15 9.68 -15 9 C-14.34 9 -13.68 9 -13 9 C-13 7.68 -13 6.36 -13 5 C-10.6875 3.375 -10.6875 3.375 -8 2 C-4.77208445 -0.1519437 -3.71599191 -0.20086443 0 0 Z " fill="#EEE8EB" transform="translate(762,822)"/>
<path d="M0 0 C2.475 0.99 2.475 0.99 5 2 C1.71842138 7.17609824 -1.45924219 11.85989729 -6 16 C-6 12.66666667 -6 9.33333333 -6 6 C-5.38125 5.7525 -4.7625 5.505 -4.125 5.25 C-1.64931313 3.79371361 -1.04874998 2.62187494 0 0 Z " fill="#E8E7E5" transform="translate(833,758)"/>
<path d="M0 0 C0.33 0.99 0.66 1.98 1 3 C-2.36603171 5.82746664 -5.94732725 7.3489111 -10 9 C-12.24572616 9.88611695 -12.24572616 9.88611695 -13.375 12.5 C-15 15 -15 15 -17.1875 15.8125 C-17.785625 15.874375 -18.38375 15.93625 -19 16 C-19.66 14.35 -20.32 12.7 -21 11 C-19.90300781 10.45730469 -18.80601562 9.91460938 -17.67578125 9.35546875 C-16.22130061 8.6329203 -14.7668765 7.91025804 -13.3125 7.1875 C-12.59126953 6.83107422 -11.87003906 6.47464844 -11.12695312 6.10742188 C-7.31859523 4.21193781 -3.61126143 2.25792874 0 0 Z " fill="#1F1612" transform="translate(776,818)"/>
<path d="M0 0 C1.91789713 0.28346278 3.83429183 0.5771028 5.75 0.875 C6.81734375 1.03742188 7.8846875 1.19984375 8.984375 1.3671875 C11.67708871 1.93223882 13.63572439 2.63422914 16 4 C15.32453125 4.04898437 14.6490625 4.09796875 13.953125 4.1484375 C13.06109375 4.22320312 12.1690625 4.29796875 11.25 4.375 C10.36828125 4.44460938 9.4865625 4.51421875 8.578125 4.5859375 C5.99513749 5.00078095 4.30649555 5.82720565 2 7 C-0.75 6.625 -0.75 6.625 -3 6 C-2.67 4.68 -2.34 3.36 -2 2 C-1.34 2 -0.68 2 0 2 C0 1.34 0 0.68 0 0 Z " fill="#1D1815" transform="translate(740,298)"/>
<path d="M0 0 C0.66 0.33 1.32 0.66 2 1 C1.67 1.99 1.34 2.98 1 4 C-11.39898174 5.53956314 -23.50706436 6.26866528 -36 6 C-36 5.34 -36 4.68 -36 4 C-35.1529248 3.98018066 -34.30584961 3.96036133 -33.43310547 3.93994141 C-30.26830998 3.86150405 -27.1038758 3.77479951 -23.93945312 3.68261719 C-22.57398079 3.64450798 -21.20841423 3.60962464 -19.84277344 3.578125 C-17.87152393 3.53208122 -15.90058796 3.47318951 -13.9296875 3.4140625 C-12.15440674 3.36693115 -12.15440674 3.36693115 -10.34326172 3.31884766 C-4.72572419 2.79636989 -4.72572419 2.79636989 0 0 Z " fill="#F4EDEB" transform="translate(700,842)"/>
<path d="M0 0 C-0.3125 1.9375 -0.3125 1.9375 -1 4 C-3.75078884 4.91692961 -5.35948913 5.10886083 -8.1875 5.0625 C-10.0746875 5.0315625 -10.0746875 5.0315625 -12 5 C-12 4.01 -12 3.02 -12 2 C-13.32 1.67 -14.64 1.34 -16 1 C-10.26696495 -0.57300962 -5.84340558 -1.24327778 0 0 Z " fill="#1F1B14" transform="translate(724,843)"/>
<path d="M0 0 C2.35953094 2.35953094 2.49141413 3.77895617 3 7 C1.35 7.33 -0.3 7.66 -2 8 C-2.33 9.32 -2.66 10.64 -3 12 C-5.31 12.66 -7.62 13.32 -10 14 C-9.61328125 13.49210938 -9.2265625 12.98421875 -8.828125 12.4609375 C-5.74572807 8.38668017 -2.78428845 4.28352069 0 0 Z " fill="#1B1A0F" transform="translate(836,762)"/>
<path d="M0 0 C0.99 0.33 1.98 0.66 3 1 C3 1.66 3 2.32 3 3 C3.391875 2.505 3.78375 2.01 4.1875 1.5 C6.55091715 -0.45593143 8.01435003 -0.24207973 11 0 C7.5798883 3.84762566 3.53225744 6.60634022 -1 9 C-1.66 9 -2.32 9 -3 9 C-2.44271087 5.65626525 -1.64826111 2.96687001 0 0 Z " fill="#E8E6E5" transform="translate(774,812)"/>
<path d="M0 0 C0.33 0.66 0.66 1.32 1 2 C2.32 2 3.64 2 5 2 C4.34 3.32 3.68 4.64 3 6 C1.22950311 6.05410687 -0.54146849 6.09284119 -2.3125 6.125 C-3.79169922 6.15980469 -3.79169922 6.15980469 -5.30078125 6.1953125 C-8 6 -8 6 -11 4 C-7.37 2.68 -3.74 1.36 0 0 Z " fill="#211D16" transform="translate(749,832)"/>
<path d="M0 0 C8.58 0 17.16 0 26 0 C26 0.33 26 0.66 26 1 C20.06 1 14.12 1 8 1 C8.33 2.32 8.66 3.64 9 5 C7.35 5 5.7 5 4 5 C3.896875 4.360625 3.79375 3.72125 3.6875 3.0625 C3.460625 2.381875 3.23375 1.70125 3 1 C2.01 0.67 1.02 0.34 0 0 Z " fill="#1F1B10" transform="translate(615,848)"/>
<path d="M0 0 C-0.33 1.32 -0.66 2.64 -1 4 C-9.42857143 5.42857143 -9.42857143 5.42857143 -14 3 C-4.91666667 -1.89102564 -4.91666667 -1.89102564 0 0 Z " fill="#26201C" transform="translate(739,838)"/>
<path d="M0 0 C1.2989839 0.90626784 2.58893167 1.82549537 3.875 2.75 C4.59429688 3.26046875 5.31359375 3.7709375 6.0546875 4.296875 C8.08570565 6.07503547 8.97855012 7.52701607 10 10 C9.01 10 8.02 10 7 10 C6.34 9.01 5.68 8.02 5 7 C3.68 7 2.36 7 1 7 C0.34 5.02 -0.32 3.04 -1 1 C-0.67 0.67 -0.34 0.34 0 0 Z " fill="#1E1512" transform="translate(881,366)"/>
<path d="M0 0 C0.33 0.99 0.66 1.98 1 3 C0.34 3 -0.32 3 -1 3 C-0.67 3.99 -0.34 4.98 0 6 C-1.62339805 7.70884005 -3.29319053 9.37446717 -5 11 C-5.66 11 -6.32 11 -7 11 C-7.66 9.68 -8.32 8.36 -9 7 C-6.03 4.69 -3.06 2.38 0 0 Z " fill="#1B1510" transform="translate(797,803)"/>
<path d="M0 0 C1 2 1 2 0.25 4.5625 C-1 7 -1 7 -4 8 C-5.20882096 10.00016466 -5.20882096 10.00016466 -6 12 C-6.66 11.67 -7.32 11.34 -8 11 C-7.1216227 6.43243804 -6.614517 4.47932326 -2.875 1.5625 C-1.92625 1.046875 -0.9775 0.53125 0 0 Z " fill="#100E06" transform="translate(785,812)"/>
<path d="M0 0 C0.33 0.66 0.66 1.32 1 2 C1.66 2 2.32 2 3 2 C3.33 3.65 3.66 5.3 4 7 C3.01 7.66 2.02 8.32 1 9 C0.34 8.67 -0.32 8.34 -1 8 C-1.66 9.32 -2.32 10.64 -3 12 C-4 10 -4 10 -3.22265625 7.6171875 C-2.83980469 6.71226562 -2.45695313 5.80734375 -2.0625 4.875 C-1.68222656 3.96492187 -1.30195312 3.05484375 -0.91015625 2.1171875 C-0.60980469 1.41851563 -0.30945313 0.71984375 0 0 Z " fill="#29211E" transform="translate(864,709)"/>
<path d="M0 0 C4.29 0.33 8.58 0.66 13 1 C13 1.99 13 2.98 13 4 C8.05 3.67 3.1 3.34 -2 3 C-1.34 2.67 -0.68 2.34 0 2 C0 1.34 0 0.68 0 0 Z " fill="#F0E5EA" transform="translate(699,289)"/>
<path d="M0 0 C3.465 1.485 3.465 1.485 7 3 C6.01 4.32 5.02 5.64 4 7 C2 6.33333333 0 5.66666667 -2 5 C-1.125 1.125 -1.125 1.125 0 0 Z " fill="#1C180E" transform="translate(813,323)"/>
<path d="M0 0 C3.465 1.98 3.465 1.98 7 4 C6.34 5.32 5.68 6.64 5 8 C3.35 7.67 1.7 7.34 0 7 C0 4.69 0 2.38 0 0 Z " fill="#1F1815" transform="translate(831,332)"/>
<path d="M0 0 C1.73783825 2.60675737 2.50215905 4.01295431 3 7 C2 8 2 8 -0.5625 8.0625 C-1.366875 8.041875 -2.17125 8.02125 -3 8 C-3 6.02 -3 4.04 -3 2 C-2.01 2 -1.02 2 0 2 C0 1.34 0 0.68 0 0 Z " fill="#241F18" transform="translate(977,488)"/>
<path d="M0 0 C0.33 0.99 0.66 1.98 1 3 C0.67 3.66 0.34 4.32 0 5 C-1.77155654 4.88570603 -3.54226229 4.75816963 -5.3125 4.625 C-6.29863281 4.55539062 -7.28476562 4.48578125 -8.30078125 4.4140625 C-11 4 -11 4 -14 2 C-11.69 2 -9.38 2 -7 2 C-7 1.67 -7 1.34 -7 1 C-2.25 0 -2.25 0 0 0 Z " fill="#CCC4C7" transform="translate(741,293)"/>
<path d="M0 0 C3.465 1.485 3.465 1.485 7 3 C6.01 4.32 5.02 5.64 4 7 C1.525 6.01 1.525 6.01 -1 5 C-0.67 3.35 -0.34 1.7 0 0 Z " fill="#1F1912" transform="translate(823,328)"/>
<path d="M0 0 C2.64 0.99 5.28 1.98 8 3 C6.6875 5 6.6875 5 5 7 C4.01 7 3.02 7 2 7 C2 6.34 2 5.68 2 5 C1.34 5 0.68 5 0 5 C0 3.35 0 1.7 0 0 Z " fill="#1E1710" transform="translate(802,318)"/>
<path d="M0 0 C-2.80804268 2.96404505 -5.18315774 5.44499019 -9 7 C-9.33 6.34 -9.66 5.68 -10 5 C-9.01 4.67 -8.02 4.34 -7 4 C-6.67 3.01 -6.34 2.02 -6 1 C-6.99 0.67 -7.98 0.34 -9 0 C-5.93109813 -1.53445094 -3.29905734 -0.54984289 0 0 Z " fill="#0E0A07" transform="translate(730,842)"/>
<path d="M0 0 C3.33557632 2.9905167 5.15083921 5.93184627 7 10 C4 10 4 10 2 9 C2 8.01 2 7.02 2 6 C1.34 6 0.68 6 0 6 C0 4.02 0 2.04 0 0 Z " fill="#261D1F" transform="translate(942,430)"/>
<path d="M0 0 C1.65 0.33 3.3 0.66 5 1 C4.67 2.65 4.34 4.3 4 6 C2.02 5.34 0.04 4.68 -2 4 C-1.34 2.68 -0.68 1.36 0 0 Z " fill="#DED8D5" transform="translate(820,322)"/>
<path d="M0 0 C1.60568666 0.28317926 3.20952047 0.57687791 4.8125 0.875 C6.15248047 1.11863281 6.15248047 1.11863281 7.51953125 1.3671875 C10 2 10 2 13 4 C10.69 4.33 8.38 4.66 6 5 C6 4.34 6 3.68 6 3 C4.35 3 2.7 3 1 3 C0.67 2.01 0.34 1.02 0 0 Z " fill="#2F2727" transform="translate(760,303)"/>
<path d="M0 0 C1.125 1.625 1.125 1.625 2 4 C1.125 7.25 1.125 7.25 0 10 C-0.33 9.34 -0.66 8.68 -1 8 C-1.66 8 -2.32 8 -3 8 C-3 6.35 -3 4.7 -3 3 C-2.01 2.67 -1.02 2.34 0 2 C0 1.34 0 0.68 0 0 Z " fill="#E9E1E9" transform="translate(864,702)"/>
<path d="M0 0 C1.32 1.32 2.64 2.64 4 4 C2.68 4.99 1.36 5.98 0 7 C-0.99 6.01 -1.98 5.02 -3 4 C-2.67 3.01 -2.34 2.02 -2 1 C-1.34 0.67 -0.68 0.34 0 0 Z " fill="#1D1511" transform="translate(938,425)"/>
<path d="M0 0 C0 1.32 0 2.64 0 4 C-4.05431692 5.15837626 -6.21812119 4.83691257 -10 3 C-10 2.67 -10 2.34 -10 2 C-6.38026598 0.68373308 -3.90432869 0 0 0 Z " fill="#E0D9D7" transform="translate(815,317)"/>
<path d="M0 0 C0.99 0.33 1.98 0.66 3 1 C2.04578192 2.14926266 1.08647955 3.29430541 0.125 4.4375 C-0.40867187 5.07558594 -0.94234375 5.71367188 -1.4921875 6.37109375 C-3 8 -3 8 -5 9 C-4.42647107 5.12867972 -2.51295648 2.91827204 0 0 Z " fill="#D9D7D8" transform="translate(809,789)"/>
<path d="M0 0 C0.33 0.99 0.66 1.98 1 3 C-1.64 5.31 -4.28 7.62 -7 10 C-7.66 9.67 -8.32 9.34 -9 9 C-6.03 6.03 -3.06 3.06 0 0 Z " fill="#161113" transform="translate(820,782)"/>
<path d="M0 0 C0.99 0.33 1.98 0.66 3 1 C2.8125 2.8125 2.8125 2.8125 2 5 C-0.4375 6.8125 -0.4375 6.8125 -3 8 C-3.66 7.67 -4.32 7.34 -5 7 C-3.35 4.69 -1.7 2.38 0 0 Z " fill="#26231B" transform="translate(845,749)"/>
<path d="M0 0 C0.66 0 1.32 0 2 0 C3.625 2 3.625 2 5 4 C2.36 4.66 -0.28 5.32 -3 6 C-3.33 5.34 -3.66 4.68 -4 4 C-3.34 4 -2.68 4 -2 4 C-1.34 2.68 -0.68 1.36 0 0 Z " fill="#EEE8EB" transform="translate(736,832)"/>
<path d="M0 0 C0.33 0 0.66 0 1 0 C1.99 3.96 2.98 7.92 4 12 C2.35 11.01 0.7 10.02 -1 9 C-0.67 6.03 -0.34 3.06 0 0 Z " fill="#35322F" transform="translate(995,535)"/>
<path d="M0 0 C1.89213369 2.38573379 3.02391783 4.07175348 4 7 C2.02 7 0.04 7 -2 7 C-1.125 2.25 -1.125 2.25 0 0 Z " fill="#262218" transform="translate(967,469)"/>
<path d="M0 0 C4.875 4.75 4.875 4.75 6 7 C3 8 3 8 0 7 C0 4.69 0 2.38 0 0 Z " fill="#1F1B13" transform="translate(926,410)"/>
<path d="M0 0 C1.67110042 2.96178773 2.32682752 5.37071192 2.625 8.75 C2.69976563 9.54921875 2.77453125 10.3484375 2.8515625 11.171875 C2.92503906 12.07679688 2.92503906 12.07679688 3 13 C2.67 12.01 2.34 11.02 2 10 C-0.01508358 9.26676204 -0.01508358 9.26676204 -2 9 C-2 8.01 -2 7.02 -2 6 C-1.34 6 -0.68 6 0 6 C0 4.02 0 2.04 0 0 Z " fill="#383734" transform="translate(1000,553)"/>
<path d="M0 0 C-2.49031084 2.07525903 -4.29089974 3.00649557 -7.55859375 2.9765625 C-10.05338223 2.71469818 -12.52365349 2.39910051 -15 2 C-15 1.67 -15 1.34 -15 1 C-13.25215171 0.63536268 -11.50159498 0.2836922 -9.75 -0.0625 C-8.28820312 -0.35833984 -8.28820312 -0.35833984 -6.796875 -0.66015625 C-4.131881 -0.98397535 -2.51128277 -0.85503199 0 0 Z " fill="#C6C8C4" transform="translate(730,976)"/>
<path d="M0 0 C4.34263862 -0.16702456 7.20960634 -0.12999997 11 2 C9.54263913 2.19491452 8.08405407 2.38069358 6.625 2.5625 C5.81289063 2.66691406 5.00078125 2.77132813 4.1640625 2.87890625 C2 3 2 3 0 2 C0 1.34 0 0.68 0 0 Z " fill="#2D2B1A" transform="translate(745,300)"/>
<path d="M0 0 C0.33 0.66 0.66 1.32 1 2 C1.99 2.33 2.98 2.66 4 3 C-0.75 7 -0.75 7 -3 7 C-1.125 1.125 -1.125 1.125 0 0 Z " fill="#DCD8DB" transform="translate(791,803)"/>
<path d="M0 0 C0.66 0.33 1.32 0.66 2 1 C1.67 1.99 1.34 2.98 1 4 C-2.63 4.33 -6.26 4.66 -10 5 C-7.00937337 3.00624891 -4.39085683 2.10571418 -1 1 C-0.67 0.67 -0.34 0.34 0 0 Z " fill="#E9E0E2" transform="translate(700,842)"/>
<path d="M0 0 C2.0625 0.4375 2.0625 0.4375 4 1 C4 1.99 4 2.98 4 4 C4.66 4.33 5.32 4.66 6 5 C5.01 5.66 4.02 6.32 3 7 C3 6.34 3 5.68 3 5 C2.34 5 1.68 5 1 5 C0.34 3.68 -0.32 2.36 -1 1 C-0.67 0.67 -0.34 0.34 0 0 Z " fill="#1B180B" transform="translate(803,798)"/>
<path d="M0 0 C0.66 0.66 1.32 1.32 2 2 C1.625 4.625 1.625 4.625 1 7 C0.01 7 -0.98 7 -2 7 C-2.33 6.01 -2.66 5.02 -3 4 C-1.5625 1.8125 -1.5625 1.8125 0 0 Z " fill="#212014" transform="translate(836,762)"/>
<path d="M0 0 C0.99 0 1.98 0 3 0 C3 1.98 3 3.96 3 6 C2.01 6.495 2.01 6.495 1 7 C1 6.34 1 5.68 1 5 C0.34 5 -0.32 5 -1 5 C-0.67 3.35 -0.34 1.7 0 0 Z " fill="#1E170C" transform="translate(485,759)"/>
<path d="M0 0 C0.33 0 0.66 0 1 0 C2.29243536 4.1196377 3.26252625 7.66831683 3 12 C2.01 11.34 1.02 10.68 0 10 C-0.29296875 7.6171875 -0.29296875 7.6171875 -0.1875 4.875 C-0.16042969 3.96492187 -0.13335938 3.05484375 -0.10546875 2.1171875 C-0.07066406 1.41851563 -0.03585937 0.71984375 0 0 Z " fill="#E9ECE7" transform="translate(874,616)"/>
<path d="M0 0 C0.99 0.33 1.98 0.66 3 1 C3.125 3.875 3.125 3.875 3 7 C2.34 7.66 1.68 8.32 1 9 C-1.125 2.25 -1.125 2.25 0 0 Z " fill="#E7E0E4" transform="translate(991,517)"/>
<path d="M0 0 C1.32 0.33 2.64 0.66 4 1 C4 1.66 4 2.32 4 3 C4.66 3 5.32 3 6 3 C5.34 4.32 4.68 5.64 4 7 C0 2.25 0 2.25 0 0 Z " fill="#E9E3E8" transform="translate(970,473)"/>
<path d="M0 0 C0.66 0.33 1.32 0.66 2 1 C1.67 2.65 1.34 4.3 1 6 C-1.475 5.01 -1.475 5.01 -4 4 C-2.68 2.68 -1.36 1.36 0 0 Z " fill="#DDD8D2" transform="translate(841,332)"/>
<path d="M0 0 C0.99 0 1.98 0 3 0 C3 0.66 3 1.32 3 2 C3.66 2.33 4.32 2.66 5 3 C3.02 3.66 1.04 4.32 -1 5 C-1.33 4.34 -1.66 3.68 -2 3 C-1.34 2.01 -0.68 1.02 0 0 Z " fill="#DAD5DB" transform="translate(759,823)"/>
<path d="M0 0 C0.33 0.99 0.66 1.98 1 3 C-0.4375 5.1875 -0.4375 5.1875 -2 7 C-3.32 6.67 -4.64 6.34 -6 6 C-4.02 4.02 -2.04 2.04 0 0 Z " fill="#0A0704" transform="translate(810,792)"/>
<path d="M0 0 C0.99 0 1.98 0 3 0 C3.33 1.98 3.66 3.96 4 6 C3.01 6.495 3.01 6.495 2 7 C2 6.34 2 5.68 2 5 C1.34 5 0.68 5 0 5 C0 3.35 0 1.7 0 0 Z " fill="#1B160E" transform="translate(276,759)"/>
<path d="M0 0 C0.99 0.99 1.98 1.98 3 3 C2.34 3.66 1.68 4.32 1 5 C-0.32 5 -1.64 5 -3 5 C-2.625 3.0625 -2.625 3.0625 -2 1 C-1.34 0.67 -0.68 0.34 0 0 Z " fill="#160F07" transform="translate(914,397)"/>
<path d="M0 0 C1.65 0 3.3 0 5 0 C4.67 1.65 4.34 3.3 4 5 C1.525 4.01 1.525 4.01 -1 3 C-0.67 2.01 -0.34 1.02 0 0 Z " fill="#E4DADD" transform="translate(829,328)"/>
<path d="M0 0 C0.99 0.33 1.98 0.66 3 1 C-0.465 3.97 -0.465 3.97 -4 7 C-4 4 -4 4 -2 1.8125 C-1.34 1.214375 -0.68 0.61625 0 0 Z " fill="#202122" transform="translate(895,890)"/>
<path d="M0 0 C0.33 0.99 0.66 1.98 1 3 C-2.625 6 -2.625 6 -6 6 C-4.75453595 2.26360784 -3.36595047 1.81243487 0 0 Z " fill="#16130B" transform="translate(776,818)"/>
<path d="M0 0 C3 2 3 2 3.6875 4.125 C3.790625 4.74375 3.89375 5.3625 4 6 C3.01 6.66 2.02 7.32 1 8 C0.26919734 6.02253397 -0.39421747 4.01927511 -1 2 C-0.67 1.34 -0.34 0.68 0 0 Z " fill="#E6DFE4" transform="translate(981,492)"/>
<path d="M0 0 C2.15377564 2.62198774 3.40072174 4.64404172 4 8 C1.525 7.01 1.525 7.01 -1 6 C-0.67 4.02 -0.34 2.04 0 0 Z " fill="#3F3935" transform="translate(972,478)"/>
<path d="M0 0 C1.89213369 2.38573379 3.02391783 4.07175348 4 7 C3.01 7.495 3.01 7.495 2 8 C0 7 0 7 -1 4 C-1.33 3.34 -1.66 2.68 -2 2 C-1.34 2 -0.68 2 0 2 C0 1.34 0 0.68 0 0 Z " fill="#302C24" transform="translate(961,458)"/>
<path d="M0 0 C1.9375 0.3125 1.9375 0.3125 4 1 C4.33 1.99 4.66 2.98 5 4 C5.66 4.33 6.32 4.66 7 5 C6.01 5.66 5.02 6.32 4 7 C2.02 3.535 2.02 3.535 0 0 Z " fill="#E8E5DD" transform="translate(953,445)"/>
<path d="M0 0 C1.64767247 0.28109113 3.29313145 0.57518526 4.9375 0.875 C5.85402344 1.03742188 6.77054688 1.19984375 7.71484375 1.3671875 C8.46894531 1.57601563 9.22304688 1.78484375 10 2 C10.33 2.66 10.66 3.32 11 4 C9.54054712 3.91291331 8.08234132 3.80473093 6.625 3.6875 C5.81289063 3.62949219 5.00078125 3.57148438 4.1640625 3.51171875 C2 3 2 3 0 0 Z " fill="#E8E6DA" transform="translate(715,291)"/>
<path d="M0 0 C0.33 0.66 0.66 1.32 1 2 C0.01 3.32 -0.98 4.64 -2 6 C-3.32 5.67 -4.64 5.34 -6 5 C-5.195625 4.360625 -4.39125 3.72125 -3.5625 3.0625 C-1.7249496 1.59396498 -1.7249496 1.59396498 0 0 Z " fill="#221F19" transform="translate(785,812)"/>
<path d="M0 0 C0.66 0.66 1.32 1.32 2 2 C1.75 5.0625 1.75 5.0625 1 8 C0.01 8.495 0.01 8.495 -1 9 C-0.67 6.03 -0.34 3.06 0 0 Z " fill="#E0DFDF" transform="translate(1006,683)"/>
<path d="M0 0 C3.77545388 1.09068668 6.47043472 1.9083091 9 5 C8.67 5.66 8.34 6.32 8 7 C6.66382648 6.02471263 5.3311249 5.04466681 4 4.0625 C3.2575 3.51722656 2.515 2.97195313 1.75 2.41015625 C1.1725 1.94480469 0.595 1.47945313 0 1 C0 0.67 0 0.34 0 0 Z " fill="#D9D2D3" transform="translate(879,364)"/>
<path d="M0 0 C1.32 0.66 2.64 1.32 4 2 C1.08235 3.9451 -0.62537285 4.45276317 -4 5 C-4 4.34 -4 3.68 -4 3 C-2 1.375 -2 1.375 0 0 Z " fill="#F6F4F4" transform="translate(728,836)"/>
<path d="M0 0 C0.66 0.66 1.32 1.32 2 2 C1.01 2.66 0.02 3.32 -1 4 C-0.67 2.68 -0.34 1.36 0 0 Z M-5 5 C-4.01 5.33 -3.02 5.66 -2 6 C-3.32 7.32 -4.64 8.64 -6 10 C-5.67 8.35 -5.34 6.7 -5 5 Z " fill="#EFEDF0" transform="translate(833,758)"/>
<path d="M0 0 C0.99 0.33 1.98 0.66 3 1 C2.38722388 3.96175123 1.74627478 5.38058783 0 8 C-0.38063221 5.6739143 -0.71269945 3.33944736 -1 1 C-0.67 0.67 -0.34 0.34 0 0 Z " fill="#E3DCE0" transform="translate(996,532)"/>
<path d="M0 0 C1.99097846 2.98646769 2.94124926 5.59687262 4 9 C2.68 8.67 1.36 8.34 0 8 C0 5.36 0 2.72 0 0 Z " fill="#403A37" transform="translate(981,497)"/>
<path d="M0 0 C0.99 0.99 1.98 1.98 3 3 C2.01 4.485 2.01 4.485 1 6 C0.01 5.67 -0.98 5.34 -2 5 C-1.34 3.35 -0.68 1.7 0 0 Z " fill="#292219" transform="translate(909,391)"/>
<path d="M0 0 C1.65 0 3.3 0 5 0 C5 0.99 5 1.98 5 3 C2.69 3 0.38 3 -2 3 C-1.34 2.67 -0.68 2.34 0 2 C0 1.34 0 0.68 0 0 Z " fill="#E8E1E3" transform="translate(699,289)"/>
</svg>
